<?xml version="1.0" encoding="utf-8"?>
<!-- Generator: Adobe Illustrator 26.3.1, SVG Export Plug-In . SVG Version: 6.00 Build 0)  -->
<svg version="1.1" id="Layer_1" xmlns:serif="http://www.serif.com/"
	 xmlns="http://www.w3.org/2000/svg" xmlns:xlink="http://www.w3.org/1999/xlink" x="0px" y="0px" viewBox="0 0 72.5 80.7"
	 style="enable-background:new 0 0 72.5 80.7;" xml:space="preserve">
<style type="text/css">
	.st0{fill-rule:evenodd;clip-rule:evenodd;fill:#C4C238;}
</style>
<g transform="matrix(0.280224,-0.191152,0.229163,0.335947,-99.7633,30.8267)">
	<path class="st0" d="M326.2,153.8l12.3-32.5c0,0,84.3-3.3,116.1,74.3c0,0-93.1,23.3-118.6,61.9c0,0-3.6,55,4.6,68.8
		c0,0-2.4,7.5-9.6,9.7l0,0h-0.1c0,0,0,0-0.1,0l0,0c-7.3-1.9-10.1-9.2-10.1-9.2c7.5-14.2,1.1-68.9,1.1-68.9
		c-27.5-37.2-121.7-55.7-121.7-55.7c27.7-79.1,112.1-80.2,112.1-80.2L326.2,153.8z"/>
</g>
</svg>
